<?xml version="1.0" encoding="utf-8"?>
<!-- Generator: Adobe Illustrator 16.0.0, SVG Export Plug-In . SVG Version: 6.00 Build 0)  -->
<!DOCTYPE svg PUBLIC "-//W3C//DTD SVG 1.1//EN" "http://www.w3.org/Graphics/SVG/1.1/DTD/svg11.dtd">
<svg version="1.1" id="Layer_1" xmlns="http://www.w3.org/2000/svg" xmlns:xlink="http://www.w3.org/1999/xlink" x="0px" y="0px"
	 width="200px" height="200px" viewBox="0 0 200 200" enable-background="new 0 0 200 200" xml:space="preserve">
<g>
	<circle fill="#CCCCCC" cx="100" cy="100" r="98.916"/>
</g>
<g enable-background="new    ">
	<path fill="#FFFFFF" d="M115.682,109.232c4.615,1.629,8.826,3.938,12.627,6.787c3.801,2.853,6.924,6.246,9.502,10.184
		c2.58,3.938,4.617,8.011,5.975,12.627c1.359,4.616,2.172,9.232,2.172,14.255h-6.516c0-5.702-0.951-10.86-2.986-15.748
		c-2.037-4.888-4.752-9.097-8.281-12.627c-3.531-3.53-7.74-6.381-12.492-8.417c-4.75-2.037-10.047-2.986-15.613-2.986
		c-3.666,0-7.195,0.406-10.59,1.356c-3.395,0.951-6.518,2.308-9.504,3.938c-2.986,1.766-5.565,3.801-8.011,6.108
		c-2.442,2.444-4.479,5.024-6.108,8.011c-1.631,2.987-2.987,6.109-3.938,9.504c-0.95,3.395-1.356,6.924-1.356,10.727h-6.519
		c0-5.023,0.681-9.775,2.173-14.256c1.493-4.479,3.529-8.689,6.109-12.49c2.58-3.803,5.838-7.196,9.64-10.047
		c3.802-2.852,7.875-5.159,12.627-6.926c-2.716-1.492-5.024-3.258-7.196-5.293c-2.172-2.037-3.938-4.347-5.431-6.926
		c-1.493-2.58-2.579-5.295-3.394-8.146c-0.815-2.851-1.223-5.838-1.223-8.825c0-4.615,0.813-8.825,2.579-12.896
		c1.765-4.074,4.072-7.469,7.06-10.592c2.988-2.986,6.518-5.431,10.455-7.06c3.938-1.765,8.281-2.58,12.763-2.58
		c4.616,0,8.825,0.813,12.762,2.58c3.938,1.765,7.467,4.073,10.455,7.06c2.984,2.987,5.295,6.518,7.061,10.592
		c1.766,4.072,2.578,8.281,2.578,12.896c0,2.987-0.406,5.975-1.223,8.825c-0.814,2.853-1.898,5.567-3.395,8.011
		c-1.492,2.58-3.258,4.889-5.432,6.924C120.705,106.109,118.262,107.875,115.682,109.232z M73.593,80.178
		c0,3.666,0.681,7.061,2.037,10.318s3.259,5.974,5.702,8.417c2.443,2.444,5.159,4.345,8.418,5.703
		c3.122,1.356,6.652,2.036,10.184,2.036c3.666,0,7.06-0.68,10.183-2.036c3.121-1.357,5.973-3.259,8.416-5.703
		c2.445-2.444,4.211-5.159,5.703-8.417c1.357-3.26,2.035-6.653,2.035-10.318c0-3.666-0.678-7.06-2.035-10.318
		c-1.357-3.258-3.258-5.974-5.703-8.418c-2.443-2.443-5.158-4.344-8.416-5.701c-3.123-1.357-6.652-2.037-10.183-2.037
		c-3.666,0-7.062,0.679-10.184,2.037c-3.123,1.357-5.975,3.258-8.418,5.701c-2.443,2.444-4.209,5.16-5.702,8.418
		C74.272,72.982,73.593,76.512,73.593,80.178z"/>
</g>
</svg>
