<svg xmlns="http://www.w3.org/2000/svg" viewBox="0 0 263 174"><g transform="translate(52.5,7)"><path id="bxSunLines" d="M79,0 C80.6568542,0 82,1.34314575 82,3 L82,22 C82,23.6568542 80.6568542,25 79,25 C77.3431458,25 76,23.6568542 76,22 L76,3 C76,1.34314575 77.3431458,0 79,0 Z M134.861,23.139 C136.032146,24.3104996 136.032146,26.2095004 134.861,27.381 L121.426,40.816 C120.248863,41.9529166 118.377746,41.9366571 117.220544,40.7794557 C116.063343,39.6222543 116.047083,37.7511367 117.184,36.574 L130.619,23.139 C131.7905,21.9678542 133.6895,21.9678542 134.861,23.139 L134.861,23.139 Z M158,79 C158,80.6568542 156.656854,82 155,82 L136,82 C134.343146,82 133,80.6568542 133,79 C133,77.3431458 134.343146,76 136,76 L155,76 C156.656854,76 158,77.3431458 158,79 Z M134.861,134.861 C133.6895,136.032146 131.7905,136.032146 130.619,134.861 L117.184,121.426 C116.40413,120.672777 116.091362,119.557366 116.365909,118.508478 C116.640455,117.45959 117.45959,116.640455 118.508478,116.365909 C119.557366,116.091362 120.672777,116.40413 121.426,117.184 L134.861,130.619 C136.032146,131.7905 136.032146,133.6895 134.861,134.861 Z M79,158 C77.3431458,158 76,156.656854 76,155 L76,136 C76,134.343146 77.3431458,133 79,133 C80.6568542,133 82,134.343146 82,136 L82,155 C82,156.656854 80.6568542,158 79,158 Z M23.139,134.861 C21.9678542,133.6895 21.9678542,131.7905 23.139,130.619 L36.574,117.184 C37.3272234,116.40413 38.4426337,116.091362 39.491522,116.365909 C40.5404103,116.640455 41.3595451,117.45959 41.6340915,118.508478 C41.9086378,119.557366 41.5958698,120.672777 40.816,121.426 L27.381,134.861 C26.2095004,136.032146 24.3104996,136.032146 23.139,134.861 Z M0,79 C0,77.3431458 1.34314575,76 3,76 L22,76 C23.6568542,76 25,77.3431458 25,79 C25,80.6568542 23.6568542,82 22,82 L3,82 C1.34314575,82 0,80.6568542 0,79 L0,79 Z M23.139,23.139 C24.3104996,21.9678542 26.2095004,21.9678542 27.381,23.139 L40.816,36.574 C41.5958698,37.3272234 41.9086378,38.4426337 41.6340915,39.491522 C41.3595451,40.5404103 40.5404103,41.3595451 39.491522,41.6340915 C38.4426337,41.9086378 37.3272234,41.5958698 36.574,40.816 L23.139,27.381 C21.9678542,26.2095004 21.9678542,24.3104996 23.139,23.139 Z" fill="#FFD110" class="bx-sun-lines-animate"/></g> <g fill="none" fill-rule="evenodd"><path d="M65.745 160.5l.245-.005c13.047-.261 23.51-10.923 23.51-23.995 0-13.255-10.745-24-24-24-3.404 0-6.706.709-9.748 2.062l-.47.21-.196-.477A19.004 19.004 0 0 0 37.5 102.5c-10.493 0-19 8.507-19 19 0 1.154.103 2.295.306 3.413l.108.6-.609-.01A17.856 17.856 0 0 0 18 125.5C8.335 125.5.5 133.335.5 143s7.835 17.5 17.5 17.5h47.745zM166.5 85.5h69v-.316l.422-.066C251.14 82.73 262.5 69.564 262.5 54c0-17.397-14.103-31.5-31.5-31.5-.347 0-.694.006-1.04.017l-.395.013-.103-.382C226.025 9.455 214.63.5 201.5.5c-15.014 0-27.512 11.658-28.877 26.765l-.047.515-.512-.063a29.296 29.296 0 0 0-3.564-.217c-16.016 0-29 12.984-29 29 0 15.101 11.59 27.643 26.542 28.897l.458.039v.064z" stroke-opacity=".05" stroke="#000" fill="#000"/> <circle stroke="#FFD110" stroke-width="6" cx="131.5" cy="86.5" r="44.5" class="b24-form-loader-icon-sun-ring"/></g></svg>